<?xml version="1.0" encoding="UTF-8" standalone="no"?>
<svg width="26px" height="37px" viewBox="0 0 26 37" version="1.1" xmlns="http://www.w3.org/2000/svg" xmlns:xlink="http://www.w3.org/1999/xlink">
    <!-- Generator: Sketch 3.7.2 (28276) - http://www.bohemiancoding.com/sketch -->
    <title>git</title>
    <desc>Created with Sketch.</desc>
    <defs></defs>
    <g id="Page-1" stroke="none" stroke-width="1" fill="none" fill-rule="evenodd">
        <g id="git" fill="#000000">
            <polygon id="Fill-1" points="25.9657021 4.26273134 22.0756596 4.26273134 22.0756596 0.379940299 16.8894894 0.379940299 16.8894894 4.26273134 13 4.26273134 13 9.43997015 16.8894894 9.43997015 16.8894894 13.3227612 22.0756596 13.3227612 22.0756596 9.43997015 25.9657021 9.43997015"></polygon>
            <path d="M16.8894894,17.2055522 C16.8894894,20.3290149 16.524383,20.6272239 15.7228085,21.2738955 C15.1220426,21.7593134 13.9249362,21.8476716 12.5286809,21.9448657 C11.7597447,22.001194 10.8757447,22.065806 9.98344681,22.2127015 C9.22280851,22.3330896 8.49259574,22.5920896 7.81161702,22.9245373 L7.81161702,10.0397015 C9.35889362,9.14231343 10.4049787,7.47455224 10.4049787,5.55662687 C10.4049787,2.701 8.0793617,0.379940299 5.21880851,0.379940299 C2.35770213,0.379940299 0.0342978723,2.701 0.0342978723,5.55662687 C0.0342978723,7.47455224 1.08038298,9.14010448 2.62765957,10.0397015 L2.62765957,26.9625075 C1.08038298,27.8598955 0.0342978723,29.5276567 0.0342978723,31.4450299 C0.0342978723,34.301209 2.35991489,36.6222687 5.22102128,36.6222687 C8.08157447,36.6222687 10.4066383,34.301209 10.4066383,31.4450299 C10.4066383,30.1748806 9.9447234,29.0096567 9.19238298,28.1122687 C9.73506383,27.7240448 10.3181277,27.4092687 10.830383,27.3269851 C11.4875745,27.2215075 12.1746383,27.1740149 12.9048511,27.1160299 C14.8819574,26.9779701 17.1273617,26.8161642 18.9988085,25.2952985 C21.5031064,23.2652687 22.0369362,21.0800597 22.0778723,17.6175224 L22.0778723,17.2055522 L16.8894894,17.2055522 Z M5.22102128,2.96828358 C6.64714894,2.96828358 7.81382979,4.13295522 7.81382979,5.55662687 C7.81382979,6.98085075 6.64714894,8.14552239 5.22102128,8.14552239 C3.79434043,8.14552239 2.62765957,6.98085075 2.62765957,5.55662687 C2.62765957,4.13295522 3.79434043,2.96828358 5.22102128,2.96828358 L5.22102128,2.96828358 Z M5.22102128,34.0317164 C3.79434043,34.0317164 2.62765957,32.8670448 2.62765957,31.4433731 C2.62765957,30.0191493 3.79434043,28.8544776 5.22102128,28.8544776 C6.64714894,28.8544776 7.81382979,30.0191493 7.81382979,31.4433731 C7.81382979,32.8670448 6.64714894,34.0317164 5.22102128,34.0317164 L5.22102128,34.0317164 Z" id="Fill-2"></path>
        </g>
    </g>
</svg>