<?xml version="1.0" encoding="UTF-8" standalone="no"?>
<svg width="55px" height="30px" viewBox="0 0 55 30" version="1.1" xmlns="http://www.w3.org/2000/svg" xmlns:xlink="http://www.w3.org/1999/xlink">
    <!-- Generator: Sketch 3.7.2 (28276) - http://www.bohemiancoding.com/sketch -->
    <title>keyboard</title>
    <desc>Created with Sketch.</desc>
    <defs></defs>
    <g id="Page-1" stroke="none" stroke-width="1" fill="none" fill-rule="evenodd">
        <path d="M52.91,9.344 L26.84,9.344 L26.84,9.144 C26.84,8.621 26.84,7.215 27.41,5.972 C28.078,4.519 29.305,3.816 31.152,3.816 L38.617,3.812 C39.731,3.785 41.383,3.012 41.383,1.008 C41.379,0.453 40.93,0 40.375,0 C39.82,0 39.371,0.449 39.371,1.012 C39.371,1.5 39.098,1.765 38.567,1.797 L31.156,1.797 C27.824,1.797 26.289,3.605 25.594,5.125 C24.836,6.769 24.836,8.5 24.836,9.148 L24.836,9.344 L1.434,9.344 C0.641,9.344 0,9.988 0,10.777 L0,28.293 C0,29.09 0.641,29.73 1.434,29.73 L52.91,29.73 C53.703,29.73 54.34,29.09 54.34,28.293 L54.34,10.777 C54.344,9.988 53.703,9.344 52.91,9.344 L52.91,9.344 Z M25.586,13.262 C25.586,13.074 25.742,12.918 25.93,12.918 L28.418,12.918 C28.606,12.918 28.758,13.074 28.758,13.262 L28.758,15.758 C28.758,15.949 28.606,16.101 28.418,16.101 L25.93,16.101 C25.742,16.101 25.586,15.949 25.586,15.758 L25.586,13.262 Z M20.16,13.262 C20.16,13.074 20.313,12.918 20.504,12.918 L22.988,12.918 C23.176,12.918 23.328,13.074 23.328,13.262 L23.328,15.758 C23.328,15.949 23.172,16.101 22.988,16.101 L20.504,16.101 C20.313,16.101 20.16,15.949 20.16,15.758 L20.16,13.262 Z M20.16,18.289 C20.16,18.101 20.313,17.945 20.504,17.945 L22.988,17.945 C23.176,17.945 23.328,18.101 23.328,18.289 L23.328,20.781 C23.328,20.969 23.172,21.125 22.988,21.125 L20.504,21.125 C20.313,21.125 20.16,20.969 20.16,20.781 L20.16,18.289 Z M14.734,13.262 C14.734,13.074 14.887,12.918 15.074,12.918 L17.563,12.918 C17.75,12.918 17.902,13.074 17.902,13.262 L17.902,15.758 C17.902,15.949 17.75,16.101 17.563,16.101 L15.074,16.101 C14.887,16.101 14.734,15.949 14.734,15.758 L14.734,13.262 Z M14.734,18.289 C14.734,18.101 14.887,17.945 15.074,17.945 L17.563,17.945 C17.75,17.945 17.902,18.101 17.902,18.289 L17.902,20.781 C17.902,20.969 17.75,21.125 17.563,21.125 L15.074,21.125 C14.887,21.125 14.734,20.969 14.734,20.781 L14.734,18.289 Z M9.305,13.262 L9.305,13.262 C9.305,13.074 9.461,12.918 9.649,12.918 L12.133,12.918 C12.32,12.918 12.477,13.074 12.477,13.262 L12.477,15.758 C12.477,15.949 12.32,16.101 12.133,16.101 L9.649,16.101 C9.461,16.101 9.305,15.949 9.305,15.758 L9.305,13.262 Z M9.305,18.289 L9.305,18.289 C9.305,18.101 9.461,17.945 9.649,17.945 L12.133,17.945 C12.32,17.945 12.477,18.101 12.477,18.289 L12.477,20.781 C12.477,20.969 12.32,21.125 12.133,21.125 L9.649,21.125 C9.461,21.125 9.305,20.969 9.305,20.781 L9.305,18.289 Z M6.707,26.156 L4.219,26.156 C4.031,26.156 3.879,26 3.879,25.812 L3.879,23.32 C3.879,23.129 4.031,22.976 4.219,22.976 L6.707,22.976 C6.895,22.976 7.047,23.129 7.047,23.32 L7.047,25.812 C7.043,26 6.891,26.156 6.707,26.156 L6.707,26.156 Z M6.707,21.125 L4.219,21.125 C4.031,21.125 3.879,20.969 3.879,20.781 L3.879,18.289 C3.879,18.101 4.031,17.945 4.219,17.945 L6.707,17.945 C6.895,17.945 7.047,18.101 7.047,18.289 L7.047,20.781 C7.043,20.972 6.891,21.125 6.707,21.125 L6.707,21.125 Z M6.707,16.101 L4.219,16.101 C4.031,16.101 3.879,15.949 3.879,15.758 L3.879,13.262 C3.879,13.074 4.031,12.918 4.219,12.918 L6.707,12.918 C6.895,12.918 7.047,13.074 7.047,13.262 L7.047,15.758 C7.043,15.949 6.891,16.101 6.707,16.101 L6.707,16.101 Z M28.754,25.812 C28.754,26 28.602,26.156 28.414,26.156 L9.649,26.156 C9.461,26.156 9.305,26 9.305,25.812 L9.305,23.32 C9.305,23.129 9.461,22.976 9.649,22.976 L28.418,22.976 C28.606,22.976 28.758,23.129 28.758,23.32 L28.758,25.812 L28.754,25.812 Z M34.184,25.812 C34.184,26 34.031,26.156 33.844,26.156 L31.36,26.156 C31.172,26.156 31.02,26 31.02,25.812 L31.02,21.129 L25.93,21.129 C25.742,21.129 25.586,20.972 25.586,20.785 L25.586,18.293 C25.586,18.105 25.742,17.949 25.93,17.949 L33.844,17.949 C34.031,17.949 34.184,18.105 34.184,18.293 L34.184,25.812 Z M34.184,15.758 C34.184,15.949 34.031,16.101 33.844,16.101 L31.36,16.101 C31.172,16.101 31.02,15.949 31.02,15.758 L31.02,13.262 C31.02,13.074 31.172,12.918 31.36,12.918 L33.844,12.918 C34.031,12.918 34.184,13.074 34.184,13.262 L34.184,15.758 Z M39.61,25.812 C39.61,26 39.453,26.156 39.266,26.156 L36.781,26.156 C36.594,26.156 36.438,26 36.438,25.812 L36.438,23.32 C36.438,23.129 36.59,22.976 36.781,22.976 L39.266,22.976 C39.453,22.976 39.61,23.129 39.61,23.32 L39.61,25.812 Z M39.61,20.785 C39.61,20.972 39.453,21.129 39.266,21.129 L36.781,21.129 C36.594,21.129 36.438,20.972 36.438,20.785 L36.438,18.293 C36.438,18.105 36.59,17.949 36.781,17.949 L39.266,17.949 C39.453,17.949 39.61,18.105 39.61,18.293 L39.61,20.785 Z M39.61,15.758 C39.61,15.949 39.453,16.101 39.266,16.101 L36.781,16.101 C36.594,16.101 36.438,15.949 36.438,15.758 L36.438,13.262 C36.438,13.074 36.59,12.918 36.781,12.918 L39.266,12.918 C39.453,12.918 39.61,13.074 39.61,13.262 L39.61,15.758 Z M45.035,25.812 C45.035,26 44.883,26.156 44.695,26.156 L42.211,26.156 C42.024,26.156 41.875,26 41.875,25.812 L41.875,23.32 C41.875,23.129 42.024,22.976 42.211,22.976 L44.695,22.976 C44.883,22.976 45.035,23.129 45.035,23.32 L45.035,25.812 Z M45.035,20.785 C45.035,20.972 44.883,21.129 44.695,21.129 L42.211,21.129 C42.024,21.129 41.875,20.972 41.875,20.785 L41.875,18.293 C41.875,18.105 42.024,17.949 42.211,17.949 L44.695,17.949 C44.883,17.949 45.035,18.105 45.035,18.293 L45.035,20.785 Z M45.035,15.758 C45.035,15.949 44.883,16.101 44.695,16.101 L42.211,16.101 C42.024,16.101 41.875,15.949 41.875,15.758 L41.875,13.262 C41.875,13.074 42.024,12.918 42.211,12.918 L44.695,12.918 C44.883,12.918 45.035,13.074 45.035,13.262 L45.035,15.758 Z M50.465,25.812 C50.465,26 50.313,26.156 50.125,26.156 L47.641,26.156 C47.453,26.156 47.301,26 47.301,25.812 L47.301,23.32 C47.301,23.129 47.453,22.976 47.641,22.976 L50.125,22.976 C50.313,22.976 50.465,23.129 50.465,23.32 L50.465,25.812 Z M50.465,20.785 C50.465,20.972 50.313,21.129 50.125,21.129 L47.641,21.129 C47.453,21.129 47.301,20.972 47.301,20.785 L47.301,18.293 C47.301,18.105 47.453,17.949 47.641,17.949 L50.125,17.949 C50.313,17.949 50.465,18.105 50.465,18.293 L50.465,20.785 Z M50.465,15.758 C50.465,15.949 50.313,16.101 50.125,16.101 L47.641,16.101 C47.453,16.101 47.301,15.949 47.301,15.758 L47.301,13.262 C47.301,13.074 47.453,12.918 47.641,12.918 L50.125,12.918 C50.313,12.918 50.465,13.074 50.465,13.262 L50.465,15.758 Z" id="keyboard" fill="#000000"></path>
    </g>
</svg>