<?xml version="1.0" encoding="UTF-8" standalone="no"?>
<svg width="47px" height="33px" viewBox="0 0 47 33" version="1.1" xmlns="http://www.w3.org/2000/svg" xmlns:xlink="http://www.w3.org/1999/xlink">
    <!-- Generator: Sketch 3.7.2 (28276) - http://www.bohemiancoding.com/sketch -->
    <title>laptop</title>
    <desc>Created with Sketch.</desc>
    <defs></defs>
    <g id="Page-1" stroke="none" stroke-width="1" fill="none" fill-rule="evenodd">
        <g id="Artboard-1" transform="translate(-21.000000, -909.000000)" fill="#000000">
            <g id="Group-5" transform="translate(21.000000, 909.000000)">
                <g id="laptop">
                    <path d="M43.53525,22.7734375 C43.53525,25.09375 41.6288125,27.0001875 39.3085,27.0001875 L7.6993125,27.0001875 C5.379,27.0001875 3.4725625,25.09375 3.4725625,22.7734375 L3.4725625,4.882625 C3.4725625,2.5623125 5.379,0.6551875 7.6993125,0.6551875 L39.3085,0.6551875 C41.6288125,0.6551875 43.53525,2.5623125 43.53525,4.882625 L43.53525,22.7734375 Z M39.875,22.5665 L39.875,4.882625 C39.875,4.367 39.5154375,4.00675 38.9998125,4.00675 L7.7529375,4.00675 C7.2373125,4.00675 6.87775,4.420625 6.87775,4.882625 L6.87775,22.56925 C6.87775,23.084875 7.2909375,23.445125 7.7529375,23.445125 L38.9998125,23.445125 C39.5154375,23.496 39.875,23.082125 39.875,22.5665 L39.875,22.5665 Z" id="Fill-1"></path>
                    <path d="M46.3711875,29.9921875 C46.3711875,31.28125 45.2890625,32.363375 44,32.363375 L2.75,32.363375 C1.4609375,32.363375 0.3788125,31.28125 0.3788125,29.9921875 L0.3788125,28.238375 L46.3711875,28.238375 L46.3711875,29.9921875 Z" id="Fill-2"></path>
                </g>
            </g>
        </g>
    </g>
</svg>