<?xml version="1.0" encoding="UTF-8" standalone="no"?>
<svg width="31px" height="33px" viewBox="0 0 31 33" version="1.1" xmlns="http://www.w3.org/2000/svg" xmlns:xlink="http://www.w3.org/1999/xlink">
    <!-- Generator: Sketch 3.7.2 (28276) - http://www.bohemiancoding.com/sketch -->
    <title>magic</title>
    <desc>Created with Sketch.</desc>
    <defs></defs>
    <g id="Page-1" stroke="none" stroke-width="1" fill="none" fill-rule="evenodd">
        <g id="magic" transform="translate(0.319963, 0.000000)" fill="#000000">
            <path d="M1.12334694,31.6321837 C1.91265306,32.4214898 2.80432653,32.8080612 3.1174898,32.494898 L24.5472857,11.065102 C24.860449,10.7519388 24.4738776,9.86026531 23.6845714,9.07095918 C22.8952653,8.28165306 22.0035918,7.89508163 21.6904286,8.2082449 L0.260632653,29.6380408 C-0.0525306122,29.9512041 0.334040816,30.8428776 1.12334694,31.6321837 L1.12334694,31.6321837 Z M21.6904286,9.63667347 C21.8480204,9.47840816 22.2952041,9.67034694 22.6898571,10.065 C23.0845102,10.4596531 23.276449,10.9068367 23.1188571,11.065102 L17.8496327,16.3343265 L16.4212041,14.905898 L21.6904286,9.63667347 Z" id="Fill-1"></path>
            <path d="M25.2759796,5.66926531 C21.6298163,4.81665306 21.2378571,5.00926531 19.6673265,8.40489796 C20.5199388,4.75873469 20.328,4.36677551 16.9316939,2.7962449 C20.5751633,3.64885714 20.9671224,3.45691837 22.5403469,0.0606122449 C21.6877347,3.70408163 21.8796735,4.09604082 25.2759796,5.66926531 L25.2759796,5.66926531 Z" id="Fill-2"></path>
            <path d="M30.7243469,7.49234694 C28.622449,9.64408163 28.588102,9.99159184 30.2717755,12.485449 C28.1200408,10.383551 27.7725306,10.351898 25.2759796,12.0328776 C27.3778776,9.88114286 27.4122245,9.53363265 25.728551,7.03977551 C27.8802857,9.14167347 28.2304898,9.17602041 30.7243469,7.49234694 L30.7243469,7.49234694 Z" id="Fill-3"></path>
            <path d="M17.8072041,8.9605102 C16.2184898,7.66610204 15.9794082,7.66610204 14.3900204,8.9605102 C15.6844286,7.37112245 15.6844286,7.13204082 14.3900204,5.54265306 C15.9794082,6.83706122 16.2184898,6.83706122 17.8072041,5.54265306 C16.5134694,7.13204082 16.5134694,7.37112245 17.8072041,8.9605102 L17.8072041,8.9605102 Z" id="Fill-4"></path>
            <path d="M26.3838367,14.2425306 C24.8207143,14.6533469 24.7102653,14.805551 24.794449,16.4185102 C24.3843061,14.8560612 24.2341224,14.7456122 22.6191429,14.8297959 C24.1815918,14.4189796 24.2920408,14.2667755 24.2051633,12.6538163 C24.6186735,14.2162653 24.7681837,14.3267143 26.3838367,14.2425306 L26.3838367,14.2425306 Z" id="Fill-5"></path>
        </g>
    </g>
</svg>