<?xml version="1.0" encoding="UTF-8" standalone="no"?>
<svg width="31px" height="28px" viewBox="0 0 31 28" version="1.1" xmlns="http://www.w3.org/2000/svg" xmlns:xlink="http://www.w3.org/1999/xlink">
    <!-- Generator: Sketch 3.7.2 (28276) - http://www.bohemiancoding.com/sketch -->
    <title>suitcase</title>
    <desc>Created with Sketch.</desc>
    <defs></defs>
    <g id="Page-1" stroke="none" stroke-width="1" fill="none" fill-rule="evenodd">
        <g id="suitcase" transform="translate(0.659981, 0.000000)" fill="#000000">
            <path d="M17.6739155,20.9428169 C17.6739155,21.7394366 17.0271549,22.3865915 16.2305352,22.3865915 L13.3453521,22.3865915 C12.5487324,22.3865915 11.9019718,21.7394366 11.9019718,20.9428169 L11.9019718,20.491662 L0,20.491662 L0,26.5333521 C0,27.3299718 0.64715493,27.9767324 1.44338028,27.9767324 L28.135662,27.9767324 C28.9318873,27.9767324 29.5790423,27.3299718 29.5790423,26.5333521 L29.5790423,20.491662 L17.675493,20.491662 L17.675493,20.9428169 L17.6739155,20.9428169 Z" id="Fill-1"></path>
            <path d="M28.1340845,5.25295775 L20.4668169,5.25295775 L20.4668169,1.46507042 C20.4668169,0.668450704 19.8216338,0.0216901408 19.0234366,0.0216901408 L10.5524507,0.0216901408 C9.75425352,0.0216901408 9.10907042,0.668450704 9.10907042,1.46507042 L9.10907042,5.25295775 L1.44338028,5.25295775 C0.64715493,5.25295775 0,5.89853521 0,6.69633803 L0,19.3223662 L11.9035493,19.3223662 L11.9035493,16.3460845 C11.9035493,15.5498592 12.5503099,14.9027042 13.3469296,14.9027042 L16.2321127,14.9027042 C17.0287324,14.9027042 17.675493,15.5498592 17.675493,16.3460845 L17.675493,19.3223662 L29.5774648,19.3223662 L29.5774648,6.69633803 C29.5774648,5.89853521 28.9303099,5.25295775 28.1340845,5.25295775 L28.1340845,5.25295775 Z M10.5524507,1.46507042 L19.0250141,1.46507042 L19.0250141,5.25295775 L10.5524507,5.25295775 L10.5524507,1.46507042 Z" id="Fill-2"></path>
            <polygon id="Fill-3" points="16.2321127 19.3207887 16.2321127 16.344507 13.3453521 16.344507 13.3453521 20.8738028 16.2321127 20.8738028"></polygon>
        </g>
    </g>
</svg>